<svg xmlns="http://www.w3.org/2000/svg" width="16" height="16" fill="none" viewBox="0 0 16 16"><path stroke="currentColor" stroke-linecap="round" stroke-linejoin="round" stroke-width="1.5" d="M12.667 7.333H3.333m9.334 0c.736 0 1.333.597 1.333 1.334v4c0 .736-.597 1.333-1.333 1.333H3.333A1.333 1.333 0 0 1 2 12.667v-4c0-.737.597-1.334 1.333-1.334m9.334 0V6c0-.736-.597-1.333-1.334-1.333m-8 2.666V6c0-.736.597-1.333 1.334-1.333m0 0V3.333C4.667 2.597 5.264 2 6 2h4c.736 0 1.333.597 1.333 1.333v1.334m-6.666 0h6.666"/></svg>
