<svg width="16" height="16" viewBox="0 0 16 16" fill="none" xmlns="http://www.w3.org/2000/svg">
<path d="M5.6 1.6C5.38983 1.60005 5.18173 1.6415 4.98758 1.72197C4.79343 1.80245 4.61704 1.92038 4.46846 2.06903C4.31989 2.21767 4.20205 2.39413 4.12167 2.58832C4.04129 2.78251 3.99995 2.99063 4 3.2008C4.00005 3.41097 4.0415 3.61906 4.12198 3.81321C4.20245 4.00736 4.32038 4.18376 4.46903 4.33233C4.61768 4.48091 4.79413 4.59875 4.98832 4.67913C5.18251 4.75951 5.39063 4.80085 5.6008 4.8008C6.02525 4.80069 6.43228 4.63198 6.73234 4.33177C7.03239 4.03156 7.20091 3.62445 7.2008 3.2C7.20069 2.77555 7.03198 2.36852 6.73177 2.06846C6.43156 1.7684 6.02445 1.59989 5.6 1.6V1.6ZM5.6 6.4C5.38983 6.40005 5.18173 6.4415 4.98758 6.52197C4.79343 6.60245 4.61704 6.72038 4.46846 6.86903C4.31989 7.01767 4.20205 7.19413 4.12167 7.38832C4.04129 7.58251 3.99995 7.79063 4 8.0008C4.00005 8.21097 4.0415 8.41906 4.12198 8.61321C4.20245 8.80736 4.32038 8.98376 4.46903 9.13233C4.61768 9.28091 4.79413 9.39875 4.98832 9.47913C5.18251 9.55951 5.39063 9.60085 5.6008 9.6008C6.02525 9.60069 6.43228 9.43198 6.73234 9.13177C7.03239 8.83156 7.20091 8.42445 7.2008 8C7.20069 7.57555 7.03198 7.16852 6.73177 6.86846C6.43156 6.5684 6.02445 6.39989 5.6 6.4V6.4ZM5.6 11.2C5.17555 11.2001 4.76852 11.3688 4.46846 11.669C4.16841 11.9692 3.99989 12.3763 4 12.8008C4.00011 13.2252 4.16882 13.6323 4.46903 13.9323C4.76924 14.2324 5.17635 14.4009 5.6008 14.4008C6.02525 14.4007 6.43228 14.232 6.73234 13.9318C7.03239 13.6316 7.20091 13.2245 7.2008 12.8C7.20069 12.3755 7.03198 11.9685 6.73177 11.6685C6.43156 11.3684 6.02445 11.1999 5.6 11.2V11.2ZM10.4 4.8C10.6102 4.79994 10.8183 4.7585 11.0124 4.67802C11.2066 4.59755 11.383 4.47962 11.5315 4.33097C11.6801 4.18232 11.798 4.00586 11.8783 3.81167C11.9587 3.61749 12.0001 3.40937 12 3.1992C11.9999 2.98903 11.9585 2.78093 11.878 2.58678C11.7975 2.39263 11.6796 2.21623 11.531 2.06766C11.3823 1.91909 11.2059 1.80125 11.0117 1.72087C10.8175 1.64049 10.6094 1.59914 10.3992 1.5992C9.97475 1.5993 9.56772 1.76802 9.26766 2.06823C8.96761 2.36843 8.79909 2.77555 8.7992 3.2C8.79931 3.62445 8.96802 4.03148 9.26823 4.33153C9.56844 4.63159 9.97555 4.8001 10.4 4.8V4.8ZM10.4 6.4C10.1898 6.40005 9.98173 6.4415 9.78758 6.52197C9.59343 6.60245 9.41704 6.72038 9.26846 6.86903C9.11989 7.01767 9.00205 7.19413 8.92167 7.38832C8.84129 7.58251 8.79995 7.79063 8.8 8.0008C8.80005 8.21097 8.8415 8.41906 8.92198 8.61321C9.00245 8.80736 9.12038 8.98376 9.26903 9.13233C9.41768 9.28091 9.59413 9.39875 9.78832 9.47913C9.98251 9.55951 10.1906 9.60085 10.4008 9.6008C10.8253 9.60069 11.2323 9.43198 11.5323 9.13177C11.8324 8.83156 12.0009 8.42445 12.0008 8C12.0007 7.57555 11.832 7.16852 11.5318 6.86846C11.2316 6.5684 10.8245 6.39989 10.4 6.4V6.4ZM10.4 11.2C9.97555 11.2001 9.56852 11.3688 9.26846 11.669C9.11989 11.8177 9.00205 11.9941 8.92167 12.1883C8.84129 12.3825 8.79995 12.5906 8.8 12.8008C8.80005 13.011 8.8415 13.2191 8.92198 13.4132C9.00245 13.6074 9.12038 13.7838 9.26903 13.9323C9.56924 14.2324 9.97635 14.4009 10.4008 14.4008C10.8253 14.4007 11.2323 14.232 11.5323 13.9318C11.8324 13.6316 12.0009 13.2245 12.0008 12.8C12.0007 12.3755 11.832 11.9685 11.5318 11.6685C11.2316 11.3684 10.8245 11.1999 10.4 11.2V11.2Z" fill="currentColor"/>
</svg>
