<svg fill="none" height="24" viewBox="0 0 24 24" width="24" xmlns="http://www.w3.org/2000/svg"><g stroke="#fff" stroke-linecap="round" stroke-linejoin="round" stroke-width="2"><path d="m4 6c0-1.10457.89543-2 2-2h2c1.10457 0 2 .89543 2 2v2c0 1.10457-.89543 2-2 2h-2c-1.10457 0-2-.89543-2-2z"/><path d="m14 6c0-1.10457.8954-2 2-2h2c1.1046 0 2 .89543 2 2v2c0 1.10457-.8954 2-2 2h-2c-1.1046 0-2-.89543-2-2z"/><path d="m4 16c0-1.1046.89543-2 2-2h2c1.10457 0 2 .8954 2 2v2c0 1.1046-.89543 2-2 2h-2c-1.10457 0-2-.8954-2-2z"/><path d="m14 16c0-1.1046.8954-2 2-2h2c1.1046 0 2 .8954 2 2v2c0 1.1046-.8954 2-2 2h-2c-1.1046 0-2-.8954-2-2z"/></g></svg>